<svg id="visual" viewBox="0 0 900 600" width="900" height="600" xmlns="http://www.w3.org/2000/svg" xmlns:xlink="http://www.w3.org/1999/xlink" version="1.1"><rect x="0" y="0" width="900" height="600" fill="#e3e3e3"></rect><path d="M0 376L21.5 382.7C43 389.3 86 402.7 128.8 401.3C171.7 400 214.3 384 257.2 388.5C300 393 343 418 385.8 423.5C428.7 429 471.3 415 514.2 399.7C557 384.3 600 367.7 642.8 370.3C685.7 373 728.3 395 771.2 409.7C814 424.3 857 431.7 878.5 435.3L900 439L900 601L878.5 601C857 601 814 601 771.2 601C728.3 601 685.7 601 642.8 601C600 601 557 601 514.2 601C471.3 601 428.7 601 385.8 601C343 601 300 601 257.2 601C214.3 601 171.7 601 128.8 601C86 601 43 601 21.5 601L0 601Z" fill="#ba7d1c"></path><path d="M0 461L21.5 450.3C43 439.7 86 418.3 128.8 409.5C171.7 400.7 214.3 404.3 257.2 418.2C300 432 343 456 385.8 467.5C428.7 479 471.3 478 514.2 464.7C557 451.3 600 425.7 642.8 418.3C685.7 411 728.3 422 771.2 424.8C814 427.7 857 422.3 878.5 419.7L900 417L900 601L878.5 601C857 601 814 601 771.2 601C728.3 601 685.7 601 642.8 601C600 601 557 601 514.2 601C471.3 601 428.7 601 385.8 601C343 601 300 601 257.2 601C214.3 601 171.7 601 128.8 601C86 601 43 601 21.5 601L0 601Z" fill="#c9871e"></path><path d="M0 454L21.5 452.3C43 450.7 86 447.3 128.8 450.8C171.7 454.3 214.3 464.7 257.2 475.7C300 486.7 343 498.3 385.8 495.5C428.7 492.7 471.3 475.3 514.2 473.7C557 472 600 486 642.8 482.8C685.7 479.7 728.3 459.3 771.2 450C814 440.7 857 442.3 878.5 443.2L900 444L900 601L878.5 601C857 601 814 601 771.2 601C728.3 601 685.7 601 642.8 601C600 601 557 601 514.2 601C471.3 601 428.7 601 385.8 601C343 601 300 601 257.2 601C214.3 601 171.7 601 128.8 601C86 601 43 601 21.5 601L0 601Z" fill="#d99221"></path><path d="M0 510L21.5 510.3C43 510.7 86 511.3 128.8 516.3C171.7 521.3 214.3 530.7 257.2 534.2C300 537.7 343 535.3 385.8 532.7C428.7 530 471.3 527 514.2 528C557 529 600 534 642.8 529.3C685.7 524.7 728.3 510.3 771.2 501.7C814 493 857 490 878.5 488.5L900 487L900 601L878.5 601C857 601 814 601 771.2 601C728.3 601 685.7 601 642.8 601C600 601 557 601 514.2 601C471.3 601 428.7 601 385.8 601C343 601 300 601 257.2 601C214.3 601 171.7 601 128.8 601C86 601 43 601 21.5 601L0 601Z" fill="#e99d23"></path><path d="M0 555L21.5 550C43 545 86 535 128.8 534.5C171.7 534 214.3 543 257.2 543.3C300 543.7 343 535.3 385.8 536.5C428.7 537.7 471.3 548.3 514.2 552.5C557 556.7 600 554.3 642.8 549.8C685.7 545.3 728.3 538.7 771.2 534.5C814 530.3 857 528.7 878.5 527.8L900 527L900 601L878.5 601C857 601 814 601 771.2 601C728.3 601 685.7 601 642.8 601C600 601 557 601 514.2 601C471.3 601 428.7 601 385.8 601C343 601 300 601 257.2 601C214.3 601 171.7 601 128.8 601C86 601 43 601 21.5 601L0 601Z" fill="#f9a826"></path></svg>