<svg id="visual" viewBox="0 0 900 600" width="900" height="600" xmlns="http://www.w3.org/2000/svg" xmlns:xlink="http://www.w3.org/1999/xlink" version="1.1"><rect x="0" y="0" width="900" height="600" fill="#ede9f4"></rect><path d="M0 424L21.5 426.7C43 429.3 86 434.7 128.8 438.7C171.7 442.7 214.3 445.3 257.2 440.8C300 436.3 343 424.7 385.8 417.3C428.7 410 471.3 407 514.2 408.5C557 410 600 416 642.8 428C685.7 440 728.3 458 771.2 468.5C814 479 857 482 878.5 483.5L900 485L900 601L878.5 601C857 601 814 601 771.2 601C728.3 601 685.7 601 642.8 601C600 601 557 601 514.2 601C471.3 601 428.7 601 385.8 601C343 601 300 601 257.2 601C214.3 601 171.7 601 128.8 601C86 601 43 601 21.5 601L0 601Z" fill="#ff9e02"></path><path d="M0 432L21.5 440.5C43 449 86 466 128.8 470.2C171.7 474.3 214.3 465.7 257.2 466.7C300 467.7 343 478.3 385.8 482.2C428.7 486 471.3 483 514.2 484.8C557 486.7 600 493.3 642.8 485C685.7 476.7 728.3 453.3 771.2 447.5C814 441.7 857 453.3 878.5 459.2L900 465L900 601L878.5 601C857 601 814 601 771.2 601C728.3 601 685.7 601 642.8 601C600 601 557 601 514.2 601C471.3 601 428.7 601 385.8 601C343 601 300 601 257.2 601C214.3 601 171.7 601 128.8 601C86 601 43 601 21.5 601L0 601Z" fill="#ffb757"></path><path d="M0 494L21.5 500C43 506 86 518 128.8 515.5C171.7 513 214.3 496 257.2 496.8C300 497.7 343 516.3 385.8 520.7C428.7 525 471.3 515 514.2 507.2C557 499.3 600 493.7 642.8 496.7C685.7 499.7 728.3 511.3 771.2 518.8C814 526.3 857 529.7 878.5 531.3L900 533L900 601L878.5 601C857 601 814 601 771.2 601C728.3 601 685.7 601 642.8 601C600 601 557 601 514.2 601C471.3 601 428.7 601 385.8 601C343 601 300 601 257.2 601C214.3 601 171.7 601 128.8 601C86 601 43 601 21.5 601L0 601Z" fill="#ffce90"></path><path d="M0 545L21.5 542.8C43 540.7 86 536.3 128.8 538.5C171.7 540.7 214.3 549.3 257.2 545C300 540.7 343 523.3 385.8 519.7C428.7 516 471.3 526 514.2 529.2C557 532.3 600 528.7 642.8 530.2C685.7 531.7 728.3 538.3 771.2 538.8C814 539.3 857 533.7 878.5 530.8L900 528L900 601L878.5 601C857 601 814 601 771.2 601C728.3 601 685.7 601 642.8 601C600 601 557 601 514.2 601C471.3 601 428.7 601 385.8 601C343 601 300 601 257.2 601C214.3 601 171.7 601 128.8 601C86 601 43 601 21.5 601L0 601Z" fill="#ffe6c7"></path><path d="M0 568L21.5 563.3C43 558.7 86 549.3 128.8 547.3C171.7 545.3 214.3 550.7 257.2 556.7C300 562.7 343 569.3 385.8 566C428.7 562.7 471.3 549.3 514.2 548.3C557 547.3 600 558.7 642.8 564.8C685.7 571 728.3 572 771.2 571.2C814 570.3 857 567.7 878.5 566.3L900 565L900 601L878.5 601C857 601 814 601 771.2 601C728.3 601 685.7 601 642.8 601C600 601 557 601 514.2 601C471.3 601 428.7 601 385.8 601C343 601 300 601 257.2 601C214.3 601 171.7 601 128.8 601C86 601 43 601 21.5 601L0 601Z" fill="#ffffff"></path></svg>