<svg id="visual" viewBox="0 0 900 600" width="900" height="600" xmlns="http://www.w3.org/2000/svg" xmlns:xlink="http://www.w3.org/1999/xlink" version="1.1"><rect x="0" y="0" width="900" height="600" fill="#FFF"></rect><path d="M0 451L18.8 446.3C37.7 441.7 75.3 432.3 112.8 423.7C150.3 415 187.7 407 225.2 409.5C262.7 412 300.3 425 337.8 425.5C375.3 426 412.7 414 450.2 407.3C487.7 400.7 525.3 399.3 562.8 404.3C600.3 409.3 637.7 420.7 675.2 428.3C712.7 436 750.3 440 787.8 433.2C825.3 426.3 862.7 408.7 881.3 399.8L900 391L900 601L881.3 601C862.7 601 825.3 601 787.8 601C750.3 601 712.7 601 675.2 601C637.7 601 600.3 601 562.8 601C525.3 601 487.7 601 450.2 601C412.7 601 375.3 601 337.8 601C300.3 601 262.7 601 225.2 601C187.7 601 150.3 601 112.8 601C75.3 601 37.7 601 18.8 601L0 601Z" fill="#f9a826"></path><path d="M0 443L18.8 447.3C37.7 451.7 75.3 460.3 112.8 464.7C150.3 469 187.7 469 225.2 465.5C262.7 462 300.3 455 337.8 454.8C375.3 454.7 412.7 461.3 450.2 460.8C487.7 460.3 525.3 452.7 562.8 447.8C600.3 443 637.7 441 675.2 443.3C712.7 445.7 750.3 452.3 787.8 456C825.3 459.7 862.7 460.3 881.3 460.7L900 461L900 601L881.3 601C862.7 601 825.3 601 787.8 601C750.3 601 712.7 601 675.2 601C637.7 601 600.3 601 562.8 601C525.3 601 487.7 601 450.2 601C412.7 601 375.3 601 337.8 601C300.3 601 262.7 601 225.2 601C187.7 601 150.3 601 112.8 601C75.3 601 37.7 601 18.8 601L0 601Z" fill="#fdbe63"></path><path d="M0 501L18.8 500.5C37.7 500 75.3 499 112.8 498C150.3 497 187.7 496 225.2 493.8C262.7 491.7 300.3 488.3 337.8 488.5C375.3 488.7 412.7 492.3 450.2 496.3C487.7 500.3 525.3 504.7 562.8 499.7C600.3 494.7 637.7 480.3 675.2 476.5C712.7 472.7 750.3 479.3 787.8 484.5C825.3 489.7 862.7 493.3 881.3 495.2L900 497L900 601L881.3 601C862.7 601 825.3 601 787.8 601C750.3 601 712.7 601 675.2 601C637.7 601 600.3 601 562.8 601C525.3 601 487.7 601 450.2 601C412.7 601 375.3 601 337.8 601C300.3 601 262.7 601 225.2 601C187.7 601 150.3 601 112.8 601C75.3 601 37.7 601 18.8 601L0 601Z" fill="#ffd397"></path><path d="M0 511L18.8 512.5C37.7 514 75.3 517 112.8 518.2C150.3 519.3 187.7 518.7 225.2 517.7C262.7 516.7 300.3 515.3 337.8 513.8C375.3 512.3 412.7 510.7 450.2 509.7C487.7 508.7 525.3 508.3 562.8 514.5C600.3 520.7 637.7 533.3 675.2 532.5C712.7 531.7 750.3 517.3 787.8 513.7C825.3 510 862.7 517 881.3 520.5L900 524L900 601L881.3 601C862.7 601 825.3 601 787.8 601C750.3 601 712.7 601 675.2 601C637.7 601 600.3 601 562.8 601C525.3 601 487.7 601 450.2 601C412.7 601 375.3 601 337.8 601C300.3 601 262.7 601 225.2 601C187.7 601 150.3 601 112.8 601C75.3 601 37.7 601 18.8 601L0 601Z" fill="#ffe9cb"></path><path d="M0 561L18.8 562.7C37.7 564.3 75.3 567.7 112.8 570.3C150.3 573 187.7 575 225.2 574.8C262.7 574.7 300.3 572.3 337.8 568C375.3 563.7 412.7 557.3 450.2 552.3C487.7 547.3 525.3 543.7 562.8 542C600.3 540.3 637.7 540.7 675.2 546.5C712.7 552.3 750.3 563.7 787.8 568.8C825.3 574 862.7 573 881.3 572.5L900 572L900 601L881.3 601C862.7 601 825.3 601 787.8 601C750.3 601 712.7 601 675.2 601C637.7 601 600.3 601 562.8 601C525.3 601 487.7 601 450.2 601C412.7 601 375.3 601 337.8 601C300.3 601 262.7 601 225.2 601C187.7 601 150.3 601 112.8 601C75.3 601 37.7 601 18.8 601L0 601Z" fill="#ffffff"></path></svg>