<svg id="visual" viewBox="0 0 900 600" width="900" height="600" xmlns="http://www.w3.org/2000/svg" xmlns:xlink="http://www.w3.org/1999/xlink" version="1.1"><rect x="0" y="0" width="900" height="600" fill="#ede9f4"></rect><path d="M0 363L16.7 364C33.3 365 66.7 367 100 369.2C133.3 371.3 166.7 373.7 200 378C233.3 382.3 266.7 388.7 300 394.2C333.3 399.7 366.7 404.3 400 400.7C433.3 397 466.7 385 500 378.5C533.3 372 566.7 371 600 371.5C633.3 372 666.7 374 700 380.5C733.3 387 766.7 398 800 402.5C833.3 407 866.7 405 883.3 404L900 403L900 601L883.3 601C866.7 601 833.3 601 800 601C766.7 601 733.3 601 700 601C666.7 601 633.3 601 600 601C566.7 601 533.3 601 500 601C466.7 601 433.3 601 400 601C366.7 601 333.3 601 300 601C266.7 601 233.3 601 200 601C166.7 601 133.3 601 100 601C66.7 601 33.3 601 16.7 601L0 601Z" fill="#f9a826"></path><path d="M0 426L16.7 426.3C33.3 426.7 66.7 427.3 100 429.8C133.3 432.3 166.7 436.7 200 432.8C233.3 429 266.7 417 300 414C333.3 411 366.7 417 400 421.5C433.3 426 466.7 429 500 432.8C533.3 436.7 566.7 441.3 600 444C633.3 446.7 666.7 447.3 700 440.2C733.3 433 766.7 418 800 414.2C833.3 410.3 866.7 417.7 883.3 421.3L900 425L900 601L883.3 601C866.7 601 833.3 601 800 601C766.7 601 733.3 601 700 601C666.7 601 633.3 601 600 601C566.7 601 533.3 601 500 601C466.7 601 433.3 601 400 601C366.7 601 333.3 601 300 601C266.7 601 233.3 601 200 601C166.7 601 133.3 601 100 601C66.7 601 33.3 601 16.7 601L0 601Z" fill="#fcb958"></path><path d="M0 479L16.7 471C33.3 463 66.7 447 100 443.5C133.3 440 166.7 449 200 456.8C233.3 464.7 266.7 471.3 300 470.3C333.3 469.3 366.7 460.7 400 455.2C433.3 449.7 466.7 447.3 500 449.8C533.3 452.3 566.7 459.7 600 461.5C633.3 463.3 666.7 459.7 700 453C733.3 446.3 766.7 436.7 800 439.8C833.3 443 866.7 459 883.3 467L900 475L900 601L883.3 601C866.7 601 833.3 601 800 601C766.7 601 733.3 601 700 601C666.7 601 633.3 601 600 601C566.7 601 533.3 601 500 601C466.7 601 433.3 601 400 601C366.7 601 333.3 601 300 601C266.7 601 233.3 601 200 601C166.7 601 133.3 601 100 601C66.7 601 33.3 601 16.7 601L0 601Z" fill="#ffcb82"></path><path d="M0 494L16.7 490.7C33.3 487.3 66.7 480.7 100 481.5C133.3 482.3 166.7 490.7 200 495.8C233.3 501 266.7 503 300 500.3C333.3 497.7 366.7 490.3 400 487.7C433.3 485 466.7 487 500 490.7C533.3 494.3 566.7 499.7 600 503.3C633.3 507 666.7 509 700 508.7C733.3 508.3 766.7 505.7 800 498.8C833.3 492 866.7 481 883.3 475.5L900 470L900 601L883.3 601C866.7 601 833.3 601 800 601C766.7 601 733.3 601 700 601C666.7 601 633.3 601 600 601C566.7 601 533.3 601 500 601C466.7 601 433.3 601 400 601C366.7 601 333.3 601 300 601C266.7 601 233.3 601 200 601C166.7 601 133.3 601 100 601C66.7 601 33.3 601 16.7 601L0 601Z" fill="#ffdcac"></path><path d="M0 530L16.7 525.5C33.3 521 66.7 512 100 513.5C133.3 515 166.7 527 200 531C233.3 535 266.7 531 300 528.3C333.3 525.7 366.7 524.3 400 524.7C433.3 525 466.7 527 500 526.3C533.3 525.7 566.7 522.3 600 523.8C633.3 525.3 666.7 531.7 700 528.8C733.3 526 766.7 514 800 508.2C833.3 502.3 866.7 502.7 883.3 502.8L900 503L900 601L883.3 601C866.7 601 833.3 601 800 601C766.7 601 733.3 601 700 601C666.7 601 633.3 601 600 601C566.7 601 533.3 601 500 601C466.7 601 433.3 601 400 601C366.7 601 333.3 601 300 601C266.7 601 233.3 601 200 601C166.7 601 133.3 601 100 601C66.7 601 33.3 601 16.7 601L0 601Z" fill="#ffedd5"></path><path d="M0 550L16.7 549.5C33.3 549 66.7 548 100 547C133.3 546 166.7 545 200 547.7C233.3 550.3 266.7 556.7 300 558C333.3 559.3 366.7 555.7 400 552.3C433.3 549 466.7 546 500 545.3C533.3 544.7 566.7 546.3 600 549.8C633.3 553.3 666.7 558.7 700 561.5C733.3 564.3 766.7 564.7 800 565.5C833.3 566.3 866.7 567.7 883.3 568.3L900 569L900 601L883.3 601C866.7 601 833.3 601 800 601C766.7 601 733.3 601 700 601C666.7 601 633.3 601 600 601C566.7 601 533.3 601 500 601C466.7 601 433.3 601 400 601C366.7 601 333.3 601 300 601C266.7 601 233.3 601 200 601C166.7 601 133.3 601 100 601C66.7 601 33.3 601 16.7 601L0 601Z" fill="#ffffff"></path></svg>